<?xml version="1.0" encoding="UTF-8" standalone="no"?>
<!-- Created with Inkscape (http://www.inkscape.org/) -->

<svg
   xmlns:dc="http://purl.org/dc/elements/1.1/"
   xmlns:cc="http://creativecommons.org/ns#"
   xmlns:rdf="http://www.w3.org/1999/02/22-rdf-syntax-ns#"
   xmlns:svg="http://www.w3.org/2000/svg"
   xmlns="http://www.w3.org/2000/svg"
   xmlns:sodipodi="http://sodipodi.sourceforge.net/DTD/sodipodi-0.dtd"
   xmlns:inkscape="http://www.inkscape.org/namespaces/inkscape"
   version="1.1"
   id="svg32410"
   xml:space="preserve"
   width="800"
   height="800"
   viewBox="0 0 800 800"
   sodipodi:docname="credit-card-hand-publicdomainvectors.org.svg"
   inkscape:version="0.92.4 (5da689c313, 2019-01-14)"><metadata
     id="metadata32416"><rdf:RDF><cc:Work
         rdf:about=""><dc:format>image/svg+xml</dc:format><dc:type
           rdf:resource="http://purl.org/dc/dcmitype/StillImage" /><dc:title></dc:title></cc:Work></rdf:RDF></metadata><defs
     id="defs32414"><clipPath
       clipPathUnits="userSpaceOnUse"
       id="clipPath32426"><path
         d="M 0,600 H 600 V 0 H 0 Z"
         id="path32424"
         inkscape:connector-curvature="0" /></clipPath></defs><sodipodi:namedview
     pagecolor="#ffffff"
     bordercolor="#666666"
     borderopacity="1"
     objecttolerance="10"
     gridtolerance="10"
     guidetolerance="10"
     inkscape:pageopacity="0"
     inkscape:pageshadow="2"
     inkscape:window-width="1920"
     inkscape:window-height="1018"
     id="namedview32412"
     showgrid="false"
     inkscape:zoom="1.0013867"
     inkscape:cx="400"
     inkscape:cy="400"
     inkscape:window-x="-8"
     inkscape:window-y="-8"
     inkscape:window-maximized="1"
     inkscape:current-layer="g32418" /><g
     id="g32418"
     inkscape:groupmode="layer"
     inkscape:label="credit-card-hand-publicdomainvectors.org"
     transform="matrix(1.3333333,0,0,-1.3333333,0,800)"><g
       id="g32420"><g
         id="g32422"
         clip-path="url(#clipPath32426)"><path
           d="m 495.697,225.914 c -65.611,-3.831 -130.296,-5.159 -174.856,47.972 -16.946,-1.086 -32.401,5.506 -47.198,15.474 -1.223,-5.659 -4.055,-10.11 -7.736,-13.928 12.936,-17.705 8.949,-28.93 -6.963,-35.59 -13.044,2.317 -22.605,14.39 -32.497,25.534 v 12.379 c -12.893,6.599 -16.922,15.403 -16.313,31.211 -25.07,-13.203 -44.72,10.517 -22.369,31.459 -7.721,3.492 -11.384,10.029 -9.286,20.888 -15.142,-15.019 -38.024,3.063 -29.536,12.598 28.697,26.724 45.769,45.475 70.958,69.798 9.242,8.92 20.711,12.957 33.501,11.788 28.372,-2.596 56.744,-5.191 85.12,-7.787 14.192,-1.298 25.825,-8.719 32.985,-21.044 31.262,-53.813 70.232,-92.742 131.929,-87.791 -2.581,-37.651 -5.159,-75.307 -7.739,-112.961"
           style="fill:#ffcc99;fill-opacity:1;fill-rule:evenodd;stroke:none"
           id="path32428"
           inkscape:connector-curvature="0" /><path
           d="m 476.376,224.906 c -58.824,-2.556 -115.359,1.076 -155.535,48.98 l -111.112,59.046 c 45.361,1.345 61.328,8.089 82.386,0.932 59.802,-20.331 58.175,-103.326 184.72,-80.382 -0.152,-9.525 -0.306,-19.05 -0.459,-28.576"
           style="fill:#edb882;fill-opacity:1;fill-rule:evenodd;stroke:none"
           id="path32430"
           inkscape:connector-curvature="0" /><path
           d="m 172.064,356.961 c -9.386,-3.917 -19.581,1.052 -23.396,7.268 17.906,2.173 34.277,11.423 49.116,27.713 17.909,6.16 31.199,16.707 36.834,34.529 16.629,-6.965 33.393,-10.703 50.64,-2.302 8.704,-23.55 22.293,-28.936 55.249,-21.868 -10.994,-29.253 -52.372,-28.582 -85.694,-19.396 -5.814,1.787 -11.623,3.571 -17.434,5.354 -15.356,-4.214 -30.707,-8.435 -46.063,-12.652 -1.861,-1.199 -3.725,-2.398 -5.589,-3.596 -1.385,-1.493 -2.77,-2.989 -4.155,-4.482 -1.031,-2.071 -2.062,-4.145 -3.093,-6.216 z"
           style="fill:#edb882;fill-opacity:1;fill-rule:evenodd;stroke:none"
           id="path32432"
           inkscape:connector-curvature="0" /><path
           d="M 476.961,356.098 467.753,203.248 579.627,188.93 V 337.018 Z"
           style="fill:#e6e6e6;fill-opacity:1;fill-rule:evenodd;stroke:none"
           id="path32434"
           inkscape:connector-curvature="0" /><path
           d="m 515.635,359.32 63.992,-15.562 V 145.931 l -86.553,14.504 z"
           style="fill:#000000;fill-opacity:1;fill-rule:evenodd;stroke:none"
           id="path32436"
           inkscape:connector-curvature="0" /><path
           d="m 320.841,273.886 c -16.946,-1.086 -32.401,5.506 -47.198,15.474 -1.223,-5.659 -4.055,-10.11 -7.736,-13.928 12.936,-17.705 8.949,-28.93 -6.963,-35.59 -13.044,2.317 -22.605,14.39 -32.497,25.534 v 12.379 c -12.893,6.599 -16.922,15.403 -16.313,31.211 -25.07,-13.203 -44.72,10.517 -22.369,31.459 25.579,-16.398 60.113,-1.385 89.384,-12.64 21.587,-8.302 29.128,-35.934 43.692,-53.899"
           style="fill:#bf8b58;fill-opacity:1;fill-rule:evenodd;stroke:none"
           id="path32438"
           inkscape:connector-curvature="0" /><path
           d="m 265.907,275.432 c 12.936,-17.705 8.949,-28.93 -6.963,-35.59 -13.044,2.317 -22.605,14.39 -32.497,25.534 v 12.379 c -12.893,6.599 -16.922,15.403 -16.313,31.211 -25.07,-13.203 -44.72,10.517 -22.369,31.459 -12.349,-19.048 -5.318,-38.479 30.158,-21.913 -2.308,-17.939 4.457,-30.321 21.18,-36.6 5.077,-10.88 11.491,-19.971 22.095,-23.477 4.883,4.009 5.971,9.918 4.709,16.997"
           style="fill:#edb882;fill-opacity:1;fill-rule:evenodd;stroke:none"
           id="path32440"
           inkscape:connector-curvature="0" /><path
           d="m 178.479,361.313 c 16.623,35.628 117.038,9.798 144.481,34.379 -21.928,-11.201 -35.164,-2 -43.736,11.509 -12.537,-2.073 -24.68,-0.998 -36.603,1.841 -11.042,-15.073 -23.253,-23.139 -36.142,-27.161 -15.426,-1.982 -24.85,-8.765 -28,-20.568"
           style="fill:#bf8b58;fill-opacity:1;fill-rule:evenodd;stroke:none"
           id="path32442"
           inkscape:connector-curvature="0" /><path
           d="m 191.289,371.459 c 5.522,-0.846 12.314,-1.517 17.84,-2.359 -2.269,-8.437 -2.109,-16.806 1.151,-25.09 -6.063,-1.076 -13.391,-2.323 -19.452,-3.399 4.987,1.687 9.975,3.378 14.962,5.066 -2.338,6.677 -2.493,13.274 -0.689,19.797 -4.604,1.996 -9.207,3.989 -13.812,5.985"
           style="fill:#deab78;fill-opacity:1;fill-rule:evenodd;stroke:none"
           id="path32444"
           inkscape:connector-curvature="0" /><path
           d="m 16.481,356.901 129.706,74.962 c 6.467,3.738 14.812,1.505 18.546,-4.961 l 29.911,-51.748 c -23.539,-11.419 -17.367,-27.562 -8.612,-33.815 L 65.676,271.781 c -6.465,-3.737 -14.813,-1.505 -18.55,4.96 l -35.607,61.61 c -3.736,6.465 -1.505,14.812 4.962,18.55"
           style="fill:#ff6633;fill-opacity:1;fill-rule:evenodd;stroke:none"
           id="path32446"
           inkscape:connector-curvature="0" /><path
           d="m 16.481,356.901 129.706,74.962 c 6.467,3.738 14.812,1.505 18.546,-4.961 l 3.345,-5.781 C 149.268,359.655 100.298,311.117 38.158,292.265 l -26.639,46.086 c -3.736,6.465 -1.505,14.812 4.962,18.55"
           style="fill:#ff8157;fill-opacity:1;fill-rule:evenodd;stroke:none"
           id="path32448"
           inkscape:connector-curvature="0" /></g></g></g></svg>